<svg xmlns="http://www.w3.org/2000/svg" xmlns:xlink="http://www.w3.org/1999/xlink" width="500" zoomAndPan="magnify" viewBox="0 0 375 374.999991" height="500" preserveAspectRatio="xMidYMid meet" version="1.0"><defs><g/><clipPath id="abc76f47ee"><path d="M 12.195312 12.195312 L 362.804688 12.195312 L 362.804688 362.804688 L 12.195312 362.804688 Z M 12.195312 12.195312 " clip-rule="nonzero"/></clipPath><clipPath id="a77e10c1da"><path d="M 187.5 12.195312 C 90.679688 12.195312 12.195312 90.679688 12.195312 187.5 C 12.195312 284.320312 90.679688 362.804688 187.5 362.804688 C 284.320312 362.804688 362.804688 284.320312 362.804688 187.5 C 362.804688 90.679688 284.320312 12.195312 187.5 12.195312 Z M 187.5 12.195312 " clip-rule="nonzero"/></clipPath><clipPath id="4905321530"><path d="M 0.195312 0.195312 L 350.804688 0.195312 L 350.804688 350.804688 L 0.195312 350.804688 Z M 0.195312 0.195312 " clip-rule="nonzero"/></clipPath><clipPath id="88beb2902e"><path d="M 175.5 0.195312 C 78.679688 0.195312 0.195312 78.679688 0.195312 175.5 C 0.195312 272.320312 78.679688 350.804688 175.5 350.804688 C 272.320312 350.804688 350.804688 272.320312 350.804688 175.5 C 350.804688 78.679688 272.320312 0.195312 175.5 0.195312 Z M 175.5 0.195312 " clip-rule="nonzero"/></clipPath><clipPath id="3d5123c334"><rect x="0" width="351" y="0" height="351"/></clipPath></defs><g clip-path="url(#abc76f47ee)"><g clip-path="url(#a77e10c1da)"><g transform="matrix(1, 0, 0, 1, 12, 12)"><g clip-path="url(#3d5123c334)"><g clip-path="url(#4905321530)"><g clip-path="url(#88beb2902e)"><path fill="#4b7166" d="M 0.195312 0.195312 L 350.804688 0.195312 L 350.804688 350.804688 L 0.195312 350.804688 Z M 0.195312 0.195312 " fill-opacity="1" fill-rule="nonzero"/></g></g></g></g></g></g><g fill="#ffffff" fill-opacity="1"><g transform="translate(54.282368, 195.782871)"><g><path d="M 97.609375 2.21875 C 80.003906 2.21875 64.769531 -0.773438 51.90625 -6.765625 C 39.039062 -12.753906 29.171875 -21.476562 22.296875 -32.9375 C 15.421875 -44.40625 11.984375 -58.421875 11.984375 -74.984375 C 11.984375 -86.222656 14.085938 -96.757812 18.296875 -106.59375 C 22.515625 -116.425781 28.578125 -125.113281 36.484375 -132.65625 C 44.398438 -140.195312 53.863281 -146.109375 64.875 -150.390625 C 75.894531 -154.679688 88.207031 -156.828125 101.8125 -156.828125 C 107.289062 -156.828125 113.242188 -156.457031 119.671875 -155.71875 C 126.109375 -154.976562 132.242188 -153.832031 138.078125 -152.28125 C 143.921875 -150.726562 148.769531 -148.625 152.625 -145.96875 L 153.5 -116.6875 L 150.84375 -116.015625 C 147.882812 -123.703125 143.519531 -130.242188 137.75 -135.640625 C 131.988281 -141.046875 125.519531 -145.226562 118.34375 -148.1875 C 111.175781 -151.144531 103.742188 -152.625 96.046875 -152.625 C 84.222656 -152.625 73.757812 -150.035156 64.65625 -144.859375 C 55.5625 -139.679688 48.425781 -132.097656 43.25 -122.109375 C 38.082031 -112.128906 35.5 -99.742188 35.5 -84.953125 C 35.5 -74.304688 37.050781 -64.03125 40.15625 -54.125 C 43.257812 -44.21875 47.726562 -35.378906 53.5625 -27.609375 C 59.40625 -19.847656 66.578125 -13.710938 75.078125 -9.203125 C 83.585938 -4.691406 93.238281 -2.4375 104.03125 -2.4375 C 116.457031 -2.4375 126.882812 -5.910156 135.3125 -12.859375 C 143.738281 -19.816406 149.953125 -29.0625 153.953125 -40.59375 L 156.828125 -40.15625 L 153.28125 -8.421875 C 147.363281 -5.765625 140.003906 -3.328125 131.203125 -1.109375 C 122.410156 1.109375 111.210938 2.21875 97.609375 2.21875 Z M 97.609375 2.21875 "/></g></g></g><g fill="#ffffff" fill-opacity="1"><g transform="translate(185.66866, 296.967096)"><g><path d="M 63.4375 2.21875 C 52.050781 2.21875 41.476562 0.628906 31.71875 -2.546875 C 21.957031 -5.734375 14.269531 -9.394531 8.65625 -13.53125 L 7.765625 -46.8125 L 10.640625 -47.25 C 13.753906 -38.820312 18.007812 -31.242188 23.40625 -24.515625 C 28.800781 -17.785156 35.34375 -12.421875 43.03125 -8.421875 C 50.71875 -4.429688 59.441406 -2.4375 69.203125 -2.4375 C 74.378906 -2.4375 79.1875 -3.507812 83.625 -5.65625 C 88.0625 -7.800781 91.6875 -10.941406 94.5 -15.078125 C 97.3125 -19.222656 98.71875 -24.328125 98.71875 -30.390625 C 98.71875 -35.859375 97.160156 -40.625 94.046875 -44.6875 C 90.941406 -48.757812 86.988281 -52.3125 82.1875 -55.34375 C 77.382812 -58.375 72.316406 -61.035156 66.984375 -63.328125 C 61.660156 -65.617188 56.78125 -67.65625 52.34375 -69.4375 C 44.800781 -72.6875 37.851562 -75.9375 31.5 -79.1875 C 25.144531 -82.445312 20.039062 -86.625 16.1875 -91.71875 C 12.34375 -96.820312 10.421875 -103.664062 10.421875 -112.25 C 10.421875 -126 15.5625 -136.863281 25.84375 -144.84375 C 36.125 -152.832031 49.988281 -156.828125 67.4375 -156.828125 C 75.71875 -156.828125 83.441406 -156.015625 90.609375 -154.390625 C 97.785156 -152.765625 104.257812 -150.472656 110.03125 -147.515625 L 110.921875 -118.671875 L 108.46875 -117.796875 C 103.882812 -129.179688 97.191406 -137.90625 88.390625 -143.96875 C 79.597656 -150.03125 69.800781 -153.0625 59 -153.0625 C 50.132812 -153.0625 42.628906 -150.582031 36.484375 -145.625 C 30.347656 -140.675781 27.28125 -133.835938 27.28125 -125.109375 C 27.28125 -120.234375 28.5 -115.984375 30.9375 -112.359375 C 33.382812 -108.734375 36.640625 -105.585938 40.703125 -102.921875 C 44.773438 -100.265625 49.140625 -97.9375 53.796875 -95.9375 C 58.453125 -93.945312 63 -92.0625 67.4375 -90.28125 C 73.050781 -88.0625 78.78125 -85.695312 84.625 -83.1875 C 90.46875 -80.675781 95.828125 -77.71875 100.703125 -74.3125 C 105.585938 -70.90625 109.507812 -66.835938 112.46875 -62.109375 C 115.425781 -57.378906 116.90625 -51.6875 116.90625 -45.03125 C 116.90625 -37.488281 115.351562 -30.757812 112.25 -24.84375 C 109.144531 -18.925781 105.003906 -13.972656 99.828125 -9.984375 C 94.648438 -5.992188 88.878906 -2.960938 82.515625 -0.890625 C 76.160156 1.179688 69.800781 2.21875 63.4375 2.21875 Z M 63.4375 2.21875 "/></g></g></g></svg>