<svg xmlns="http://www.w3.org/2000/svg" xmlns:xlink="http://www.w3.org/1999/xlink" width="500" zoomAndPan="magnify" viewBox="0 0 375 225" height="300" preserveAspectRatio="xMidYMid meet" version="1.2"><defs/><g id="e06fdd35f1"><g style="fill:#4b7166;fill-opacity:1;"><g transform="translate(7.104685, 108.560161)"><path style="stroke:none" d="M 52.75 1.265625 C 43.46875 1.265625 35.347656 -0.503906 28.390625 -4.046875 C 21.429688 -7.585938 16.015625 -12.625 12.140625 -19.15625 C 8.265625 -25.695312 6.328125 -33.394531 6.328125 -42.25 C 6.328125 -49.332031 7.585938 -55.78125 10.109375 -61.59375 C 12.640625 -67.414062 16.160156 -72.390625 20.671875 -76.515625 C 25.191406 -80.648438 30.484375 -83.832031 36.546875 -86.0625 C 42.617188 -88.300781 49.195312 -89.421875 56.28125 -89.421875 C 60.414062 -89.421875 64.398438 -89 68.234375 -88.15625 C 72.078125 -87.3125 75.429688 -86.382812 78.296875 -85.375 C 81.160156 -84.363281 83.097656 -83.5625 84.109375 -82.96875 L 84.625 -69.8125 L 83.609375 -69.5625 C 81.242188 -74.539062 77.363281 -78.671875 71.96875 -81.953125 C 66.570312 -85.242188 59.53125 -86.890625 50.84375 -86.890625 C 44.1875 -86.890625 38.070312 -85.414062 32.5 -82.46875 C 26.9375 -79.519531 22.445312 -75.09375 19.03125 -69.1875 C 15.613281 -63.28125 13.863281 -55.898438 13.78125 -47.046875 C 13.78125 -41.316406 14.644531 -35.710938 16.375 -30.234375 C 18.101562 -24.753906 20.757812 -19.820312 24.34375 -15.4375 C 27.925781 -11.050781 32.351562 -7.550781 37.625 -4.9375 C 42.894531 -2.320312 49.070312 -1.015625 56.15625 -1.015625 C 62.738281 -1.015625 68.726562 -2.59375 74.125 -5.75 C 79.519531 -8.914062 83.523438 -14.039062 86.140625 -21.125 L 87.40625 -21 L 85.375 -6.328125 C 83.601562 -5.140625 80.96875 -3.957031 77.46875 -2.78125 C 73.96875 -1.601562 70.046875 -0.632812 65.703125 0.125 C 61.359375 0.882812 57.039062 1.265625 52.75 1.265625 Z M 52.75 1.265625 "/></g></g><g style="fill:#4b7166;fill-opacity:1;"><g transform="translate(12.747331, 201.670931)"><path style="stroke:none" d="M 13.09375 0 L 8.515625 -8.03125 L 4.328125 -8.03125 L 4.328125 0 L 2.421875 0 L 2.421875 -19.046875 L 9.0625 -19.046875 C 10.1875 -19.046875 11.195312 -18.796875 12.09375 -18.296875 C 13 -17.804688 13.707031 -17.132812 14.21875 -16.28125 C 14.738281 -15.425781 15 -14.488281 15 -13.46875 C 15 -12.1875 14.585938 -11.066406 13.765625 -10.109375 C 12.953125 -9.160156 11.882812 -8.53125 10.5625 -8.21875 L 15.296875 0 Z M 4.328125 -17.28125 L 4.328125 -9.796875 L 9.0625 -9.796875 C 10.238281 -9.796875 11.203125 -10.144531 11.953125 -10.84375 C 12.710938 -11.539062 13.09375 -12.414062 13.09375 -13.46875 C 13.09375 -14.582031 12.71875 -15.492188 11.96875 -16.203125 C 11.226562 -16.921875 10.257812 -17.28125 9.0625 -17.28125 Z M 4.328125 -17.28125 "/></g></g><g style="fill:#4b7166;fill-opacity:1;"><g transform="translate(28.992395, 201.670931)"><path style="stroke:none" d="M 13.5625 -7.21875 C 13.5625 -6.65625 13.523438 -6.226562 13.453125 -5.9375 L 2.890625 -5.9375 C 3.035156 -4.539062 3.53125 -3.429688 4.375 -2.609375 C 5.21875 -1.796875 6.265625 -1.390625 7.515625 -1.390625 C 9.179688 -1.390625 10.441406 -2.101562 11.296875 -3.53125 L 13.0625 -3.53125 C 12.644531 -2.425781 11.925781 -1.515625 10.90625 -0.796875 C 9.894531 -0.0859375 8.742188 0.265625 7.453125 0.265625 C 6.253906 0.265625 5.171875 -0.03125 4.203125 -0.625 C 3.234375 -1.226562 2.46875 -2.0625 1.90625 -3.125 C 1.34375 -4.195312 1.0625 -5.425781 1.0625 -6.8125 C 1.0625 -8.144531 1.347656 -9.351562 1.921875 -10.4375 C 2.492188 -11.519531 3.269531 -12.363281 4.25 -12.96875 C 5.226562 -13.570312 6.296875 -13.875 7.453125 -13.875 C 8.597656 -13.875 9.632812 -13.578125 10.5625 -12.984375 C 11.5 -12.398438 12.234375 -11.597656 12.765625 -10.578125 C 13.296875 -9.566406 13.5625 -8.445312 13.5625 -7.21875 Z M 7.453125 -12.21875 C 6.691406 -12.21875 5.976562 -12.019531 5.3125 -11.625 C 4.65625 -11.238281 4.101562 -10.6875 3.65625 -9.96875 C 3.21875 -9.257812 2.953125 -8.453125 2.859375 -7.546875 L 11.765625 -7.546875 C 11.671875 -8.898438 11.222656 -10.015625 10.421875 -10.890625 C 9.628906 -11.773438 8.640625 -12.21875 7.453125 -12.21875 Z M 7.453125 -12.21875 "/></g></g><g style="fill:#4b7166;fill-opacity:1;"><g transform="translate(43.604819, 201.670931)"><path style="stroke:none" d="M 7.4375 5.171875 C 5.957031 5.171875 4.703125 4.796875 3.671875 4.046875 C 2.640625 3.304688 1.96875 2.3125 1.65625 1.0625 L 3.421875 1.0625 C 3.679688 1.820312 4.160156 2.421875 4.859375 2.859375 C 5.554688 3.296875 6.414062 3.515625 7.4375 3.515625 C 8.644531 3.515625 9.617188 3.148438 10.359375 2.421875 C 11.109375 1.691406 11.484375 0.726562 11.484375 -0.46875 L 11.484375 -2.609375 L 11.34375 -2.609375 C 11.1875 -2.359375 10.90625 -2.0625 10.5 -1.71875 C 10.101562 -1.382812 9.613281 -1.09375 9.03125 -0.84375 C 8.457031 -0.59375 7.832031 -0.46875 7.15625 -0.46875 C 6.050781 -0.46875 5.03125 -0.753906 4.09375 -1.328125 C 3.15625 -1.910156 2.414062 -2.710938 1.875 -3.734375 C 1.332031 -4.765625 1.0625 -5.90625 1.0625 -7.15625 C 1.0625 -8.425781 1.332031 -9.570312 1.875 -10.59375 C 2.414062 -11.625 3.15625 -12.425781 4.09375 -13 C 5.03125 -13.582031 6.050781 -13.875 7.15625 -13.875 C 7.832031 -13.875 8.457031 -13.75 9.03125 -13.5 C 9.613281 -13.257812 10.101562 -12.972656 10.5 -12.640625 C 10.90625 -12.304688 11.1875 -12.015625 11.34375 -11.765625 L 11.484375 -11.765625 L 11.953125 -13.609375 L 13.25 -13.609375 L 13.25 -0.46875 C 13.25 0.644531 13.003906 1.625 12.515625 2.46875 C 12.023438 3.320312 11.335938 3.984375 10.453125 4.453125 C 9.578125 4.929688 8.570312 5.171875 7.4375 5.171875 Z M 7.15625 -2.125 C 7.914062 -2.125 8.625 -2.335938 9.28125 -2.765625 C 9.945312 -3.203125 10.476562 -3.804688 10.875 -4.578125 C 11.28125 -5.359375 11.484375 -6.21875 11.484375 -7.15625 C 11.484375 -8.113281 11.28125 -8.976562 10.875 -9.75 C 10.476562 -10.53125 9.945312 -11.132812 9.28125 -11.5625 C 8.625 -12 7.914062 -12.21875 7.15625 -12.21875 C 6.375 -12.21875 5.648438 -12 4.984375 -11.5625 C 4.328125 -11.132812 3.800781 -10.53125 3.40625 -9.75 C 3.019531 -8.976562 2.828125 -8.113281 2.828125 -7.15625 C 2.828125 -6.21875 3.019531 -5.359375 3.40625 -4.578125 C 3.800781 -3.804688 4.328125 -3.203125 4.984375 -2.765625 C 5.648438 -2.335938 6.375 -2.125 7.15625 -2.125 Z M 7.15625 -2.125 "/></g></g><g style="fill:#4b7166;fill-opacity:1;"><g transform="translate(58.81588, 201.670931)"><path style="stroke:none" d="M 3.734375 0 L 1.953125 0 L 1.953125 -13.609375 L 3.734375 -13.609375 Z M 2.859375 -15.78125 C 2.515625 -15.78125 2.222656 -15.898438 1.984375 -16.140625 C 1.753906 -16.378906 1.640625 -16.671875 1.640625 -17.015625 C 1.640625 -17.378906 1.753906 -17.671875 1.984375 -17.890625 C 2.222656 -18.117188 2.515625 -18.234375 2.859375 -18.234375 C 3.222656 -18.234375 3.519531 -18.117188 3.75 -17.890625 C 3.976562 -17.671875 4.09375 -17.378906 4.09375 -17.015625 C 4.09375 -16.671875 3.972656 -16.378906 3.734375 -16.140625 C 3.492188 -15.898438 3.203125 -15.78125 2.859375 -15.78125 Z M 2.859375 -15.78125 "/></g></g><g style="fill:#4b7166;fill-opacity:1;"><g transform="translate(64.503032, 201.670931)"><path style="stroke:none" d="M 6.0625 0.265625 C 5.144531 0.265625 4.3125 0.0703125 3.5625 -0.3125 C 2.820312 -0.695312 2.234375 -1.21875 1.796875 -1.875 C 1.359375 -2.53125 1.113281 -3.222656 1.0625 -3.953125 L 2.828125 -3.953125 C 2.921875 -3.179688 3.25 -2.5625 3.8125 -2.09375 C 4.375 -1.625 5.125 -1.390625 6.0625 -1.390625 C 6.988281 -1.390625 7.703125 -1.597656 8.203125 -2.015625 C 8.703125 -2.429688 8.953125 -2.957031 8.953125 -3.59375 C 8.953125 -4.0625 8.804688 -4.445312 8.515625 -4.75 C 8.222656 -5.0625 7.867188 -5.3125 7.453125 -5.5 C 7.035156 -5.695312 6.445312 -5.914062 5.6875 -6.15625 C 4.757812 -6.445312 4.015625 -6.722656 3.453125 -6.984375 C 2.890625 -7.242188 2.410156 -7.625 2.015625 -8.125 C 1.617188 -8.625 1.421875 -9.273438 1.421875 -10.078125 C 1.421875 -10.773438 1.601562 -11.414062 1.96875 -12 C 2.34375 -12.582031 2.863281 -13.039062 3.53125 -13.375 C 4.207031 -13.707031 4.988281 -13.875 5.875 -13.875 C 6.75 -13.875 7.53125 -13.691406 8.21875 -13.328125 C 8.90625 -12.972656 9.445312 -12.484375 9.84375 -11.859375 C 10.25 -11.234375 10.476562 -10.546875 10.53125 -9.796875 L 8.765625 -9.796875 C 8.671875 -10.554688 8.378906 -11.148438 7.890625 -11.578125 C 7.398438 -12.003906 6.726562 -12.21875 5.875 -12.21875 C 5.019531 -12.21875 4.359375 -12.019531 3.890625 -11.625 C 3.421875 -11.238281 3.1875 -10.75 3.1875 -10.15625 C 3.1875 -9.5 3.445312 -9.003906 3.96875 -8.671875 C 4.5 -8.335938 5.304688 -8 6.390625 -7.65625 C 7.316406 -7.34375 8.066406 -7.046875 8.640625 -6.765625 C 9.210938 -6.484375 9.703125 -6.085938 10.109375 -5.578125 C 10.515625 -5.066406 10.71875 -4.40625 10.71875 -3.59375 C 10.71875 -2.488281 10.300781 -1.566406 9.46875 -0.828125 C 8.632812 -0.0976562 7.5 0.265625 6.0625 0.265625 Z M 6.0625 0.265625 "/></g></g><g style="fill:#4b7166;fill-opacity:1;"><g transform="translate(76.067768, 201.670931)"><path style="stroke:none" d="M 6.59375 0.265625 C 5.5 0.265625 4.597656 -0.117188 3.890625 -0.890625 C 3.179688 -1.671875 2.828125 -2.734375 2.828125 -4.078125 L 2.828125 -11.953125 L 0.40625 -11.953125 L 0.40625 -13.609375 L 1.46875 -13.609375 C 2.570312 -13.609375 3.125 -14.15625 3.125 -15.25 L 3.125 -17.234375 L 4.59375 -17.234375 L 4.59375 -13.609375 L 7.78125 -13.609375 L 7.78125 -11.953125 L 4.59375 -11.953125 L 4.59375 -4.0625 C 4.59375 -3.164062 4.789062 -2.492188 5.1875 -2.046875 C 5.59375 -1.609375 6.148438 -1.390625 6.859375 -1.390625 C 7.179688 -1.390625 7.488281 -1.441406 7.78125 -1.546875 L 7.78125 0.046875 C 7.382812 0.191406 6.988281 0.265625 6.59375 0.265625 Z M 6.59375 0.265625 "/></g></g><g style="fill:#4b7166;fill-opacity:1;"><g transform="translate(84.503207, 201.670931)"><path style="stroke:none" d="M 13.5625 -7.21875 C 13.5625 -6.65625 13.523438 -6.226562 13.453125 -5.9375 L 2.890625 -5.9375 C 3.035156 -4.539062 3.53125 -3.429688 4.375 -2.609375 C 5.21875 -1.796875 6.265625 -1.390625 7.515625 -1.390625 C 9.179688 -1.390625 10.441406 -2.101562 11.296875 -3.53125 L 13.0625 -3.53125 C 12.644531 -2.425781 11.925781 -1.515625 10.90625 -0.796875 C 9.894531 -0.0859375 8.742188 0.265625 7.453125 0.265625 C 6.253906 0.265625 5.171875 -0.03125 4.203125 -0.625 C 3.234375 -1.226562 2.46875 -2.0625 1.90625 -3.125 C 1.34375 -4.195312 1.0625 -5.425781 1.0625 -6.8125 C 1.0625 -8.144531 1.347656 -9.351562 1.921875 -10.4375 C 2.492188 -11.519531 3.269531 -12.363281 4.25 -12.96875 C 5.226562 -13.570312 6.296875 -13.875 7.453125 -13.875 C 8.597656 -13.875 9.632812 -13.578125 10.5625 -12.984375 C 11.5 -12.398438 12.234375 -11.597656 12.765625 -10.578125 C 13.296875 -9.566406 13.5625 -8.445312 13.5625 -7.21875 Z M 7.453125 -12.21875 C 6.691406 -12.21875 5.976562 -12.019531 5.3125 -11.625 C 4.65625 -11.238281 4.101562 -10.6875 3.65625 -9.96875 C 3.21875 -9.257812 2.953125 -8.453125 2.859375 -7.546875 L 11.765625 -7.546875 C 11.671875 -8.898438 11.222656 -10.015625 10.421875 -10.890625 C 9.628906 -11.773438 8.640625 -12.21875 7.453125 -12.21875 Z M 7.453125 -12.21875 "/></g></g><g style="fill:#4b7166;fill-opacity:1;"><g transform="translate(99.115631, 201.670931)"><path style="stroke:none" d="M 1.953125 0 L 1.953125 -13.609375 L 3.265625 -13.609375 L 3.734375 -11.765625 L 3.859375 -11.765625 C 4.203125 -12.285156 4.707031 -12.765625 5.375 -13.203125 C 6.050781 -13.648438 6.773438 -13.875 7.546875 -13.875 C 7.960938 -13.875 8.285156 -13.835938 8.515625 -13.765625 L 8.515625 -12 C 8.222656 -12.070312 7.914062 -12.109375 7.59375 -12.109375 C 6.445312 -12.109375 5.515625 -11.722656 4.796875 -10.953125 C 4.085938 -10.179688 3.734375 -9.125 3.734375 -7.78125 L 3.734375 0 Z M 1.953125 0 "/></g></g><g style="fill:#4b7166;fill-opacity:1;"><g transform="translate(107.306117, 201.670931)"><path style="stroke:none" d="M 13.5625 -7.21875 C 13.5625 -6.65625 13.523438 -6.226562 13.453125 -5.9375 L 2.890625 -5.9375 C 3.035156 -4.539062 3.53125 -3.429688 4.375 -2.609375 C 5.21875 -1.796875 6.265625 -1.390625 7.515625 -1.390625 C 9.179688 -1.390625 10.441406 -2.101562 11.296875 -3.53125 L 13.0625 -3.53125 C 12.644531 -2.425781 11.925781 -1.515625 10.90625 -0.796875 C 9.894531 -0.0859375 8.742188 0.265625 7.453125 0.265625 C 6.253906 0.265625 5.171875 -0.03125 4.203125 -0.625 C 3.234375 -1.226562 2.46875 -2.0625 1.90625 -3.125 C 1.34375 -4.195312 1.0625 -5.425781 1.0625 -6.8125 C 1.0625 -8.144531 1.347656 -9.351562 1.921875 -10.4375 C 2.492188 -11.519531 3.269531 -12.363281 4.25 -12.96875 C 5.226562 -13.570312 6.296875 -13.875 7.453125 -13.875 C 8.597656 -13.875 9.632812 -13.578125 10.5625 -12.984375 C 11.5 -12.398438 12.234375 -11.597656 12.765625 -10.578125 C 13.296875 -9.566406 13.5625 -8.445312 13.5625 -7.21875 Z M 7.453125 -12.21875 C 6.691406 -12.21875 5.976562 -12.019531 5.3125 -11.625 C 4.65625 -11.238281 4.101562 -10.6875 3.65625 -9.96875 C 3.21875 -9.257812 2.953125 -8.453125 2.859375 -7.546875 L 11.765625 -7.546875 C 11.671875 -8.898438 11.222656 -10.015625 10.421875 -10.890625 C 9.628906 -11.773438 8.640625 -12.21875 7.453125 -12.21875 Z M 7.453125 -12.21875 "/></g></g><g style="fill:#4b7166;fill-opacity:1;"><g transform="translate(121.918541, 201.670931)"><path style="stroke:none" d="M 7.328125 0.265625 C 6.179688 0.265625 5.128906 -0.03125 4.171875 -0.625 C 3.222656 -1.226562 2.46875 -2.066406 1.90625 -3.140625 C 1.34375 -4.222656 1.0625 -5.445312 1.0625 -6.8125 C 1.0625 -8.164062 1.34375 -9.378906 1.90625 -10.453125 C 2.46875 -11.535156 3.222656 -12.375 4.171875 -12.96875 C 5.128906 -13.570312 6.179688 -13.875 7.328125 -13.875 C 8.015625 -13.875 8.660156 -13.75 9.265625 -13.5 C 9.878906 -13.25 10.394531 -12.957031 10.8125 -12.625 C 11.226562 -12.300781 11.515625 -12.015625 11.671875 -11.765625 L 11.8125 -11.765625 L 11.8125 -19.046875 L 13.578125 -19.046875 L 13.578125 0 L 12.28125 0 L 11.8125 -1.84375 L 11.671875 -1.84375 C 11.492188 -1.59375 11.203125 -1.300781 10.796875 -0.96875 C 10.390625 -0.644531 9.878906 -0.359375 9.265625 -0.109375 C 8.660156 0.140625 8.015625 0.265625 7.328125 0.265625 Z M 7.328125 -1.390625 C 8.140625 -1.390625 8.890625 -1.613281 9.578125 -2.0625 C 10.265625 -2.519531 10.804688 -3.160156 11.203125 -3.984375 C 11.609375 -4.804688 11.8125 -5.75 11.8125 -6.8125 C 11.8125 -7.863281 11.609375 -8.800781 11.203125 -9.625 C 10.804688 -10.445312 10.265625 -11.082031 9.578125 -11.53125 C 8.890625 -11.988281 8.140625 -12.21875 7.328125 -12.21875 C 6.503906 -12.21875 5.75 -11.988281 5.0625 -11.53125 C 4.375 -11.082031 3.828125 -10.445312 3.421875 -9.625 C 3.023438 -8.800781 2.828125 -7.863281 2.828125 -6.8125 C 2.828125 -5.75 3.023438 -4.804688 3.421875 -3.984375 C 3.828125 -3.160156 4.375 -2.519531 5.0625 -2.0625 C 5.75 -1.613281 6.503906 -1.390625 7.328125 -1.390625 Z M 7.328125 -1.390625 "/></g></g><g style="fill:#4b7166;fill-opacity:1;"><g transform="translate(137.592201, 201.670931)"><path style="stroke:none" d=""/></g></g><g style="fill:#4b7166;fill-opacity:1;"><g transform="translate(144.068476, 201.670931)"><path style="stroke:none" d="M 10.015625 0.265625 C 8.453125 0.265625 6.992188 -0.15625 5.640625 -1 C 4.296875 -1.851562 3.21875 -3.03125 2.40625 -4.53125 C 1.601562 -6.03125 1.203125 -7.695312 1.203125 -9.53125 C 1.203125 -11.363281 1.601562 -13.023438 2.40625 -14.515625 C 3.21875 -16.015625 4.296875 -17.191406 5.640625 -18.046875 C 6.992188 -18.898438 8.453125 -19.328125 10.015625 -19.328125 C 11.285156 -19.328125 12.46875 -19.035156 13.5625 -18.453125 C 14.664062 -17.867188 15.597656 -17.070312 16.359375 -16.0625 C 17.117188 -15.0625 17.65625 -13.9375 17.96875 -12.6875 L 16.0625 -12.6875 C 15.582031 -14.113281 14.820312 -15.28125 13.78125 -16.1875 C 12.738281 -17.101562 11.484375 -17.5625 10.015625 -17.5625 C 8.796875 -17.5625 7.65625 -17.21875 6.59375 -16.53125 C 5.539062 -15.851562 4.695312 -14.898438 4.0625 -13.671875 C 3.425781 -12.453125 3.109375 -11.070312 3.109375 -9.53125 C 3.109375 -7.988281 3.425781 -6.601562 4.0625 -5.375 C 4.695312 -4.144531 5.539062 -3.191406 6.59375 -2.515625 C 7.65625 -1.835938 8.796875 -1.5 10.015625 -1.5 C 11.535156 -1.5 12.828125 -1.953125 13.890625 -2.859375 C 14.953125 -3.765625 15.71875 -4.9375 16.1875 -6.375 L 18.09375 -6.375 C 17.789062 -5.113281 17.253906 -3.976562 16.484375 -2.96875 C 15.710938 -1.96875 14.765625 -1.175781 13.640625 -0.59375 C 12.523438 -0.0195312 11.316406 0.265625 10.015625 0.265625 Z M 10.015625 0.265625 "/></g></g><g style="fill:#4b7166;fill-opacity:1;"><g transform="translate(163.225171, 201.670931)"><path style="stroke:none" d="M 3.859375 0 L 2.09375 0 L 2.09375 -19.046875 L 3.859375 -19.046875 Z M 3.859375 0 "/></g></g><g style="fill:#4b7166;fill-opacity:1;"><g transform="translate(169.184436, 201.670931)"><path style="stroke:none" d="M 3.734375 0 L 1.953125 0 L 1.953125 -13.609375 L 3.734375 -13.609375 Z M 2.859375 -15.78125 C 2.515625 -15.78125 2.222656 -15.898438 1.984375 -16.140625 C 1.753906 -16.378906 1.640625 -16.671875 1.640625 -17.015625 C 1.640625 -17.378906 1.753906 -17.671875 1.984375 -17.890625 C 2.222656 -18.117188 2.515625 -18.234375 2.859375 -18.234375 C 3.222656 -18.234375 3.519531 -18.117188 3.75 -17.890625 C 3.976562 -17.671875 4.09375 -17.378906 4.09375 -17.015625 C 4.09375 -16.671875 3.972656 -16.378906 3.734375 -16.140625 C 3.492188 -15.898438 3.203125 -15.78125 2.859375 -15.78125 Z M 2.859375 -15.78125 "/></g></g><g style="fill:#4b7166;fill-opacity:1;"><g transform="translate(174.871589, 201.670931)"><path style="stroke:none" d="M 1.953125 0 L 1.953125 -13.609375 L 3.265625 -13.609375 L 3.734375 -11.765625 L 3.859375 -11.765625 C 4.222656 -12.328125 4.753906 -12.816406 5.453125 -13.234375 C 6.148438 -13.660156 6.953125 -13.875 7.859375 -13.875 C 8.878906 -13.875 9.800781 -13.628906 10.625 -13.140625 C 11.457031 -12.648438 12.109375 -11.953125 12.578125 -11.046875 C 13.046875 -10.140625 13.28125 -9.085938 13.28125 -7.890625 L 13.28125 0 L 11.515625 0 L 11.515625 -7.890625 C 11.515625 -9.234375 11.160156 -10.289062 10.453125 -11.0625 C 9.742188 -11.832031 8.828125 -12.21875 7.703125 -12.21875 C 6.503906 -12.21875 5.539062 -11.832031 4.8125 -11.0625 C 4.09375 -10.289062 3.734375 -9.234375 3.734375 -7.890625 L 3.734375 0 Z M 1.953125 0 "/></g></g><g style="fill:#4b7166;fill-opacity:1;"><g transform="translate(189.973808, 201.670931)"><path style="stroke:none" d="M 3.734375 0 L 1.953125 0 L 1.953125 -13.609375 L 3.734375 -13.609375 Z M 2.859375 -15.78125 C 2.515625 -15.78125 2.222656 -15.898438 1.984375 -16.140625 C 1.753906 -16.378906 1.640625 -16.671875 1.640625 -17.015625 C 1.640625 -17.378906 1.753906 -17.671875 1.984375 -17.890625 C 2.222656 -18.117188 2.515625 -18.234375 2.859375 -18.234375 C 3.222656 -18.234375 3.519531 -18.117188 3.75 -17.890625 C 3.976562 -17.671875 4.09375 -17.378906 4.09375 -17.015625 C 4.09375 -16.671875 3.972656 -16.378906 3.734375 -16.140625 C 3.492188 -15.898438 3.203125 -15.78125 2.859375 -15.78125 Z M 2.859375 -15.78125 "/></g></g><g style="fill:#4b7166;fill-opacity:1;"><g transform="translate(195.66096, 201.670931)"><path style="stroke:none" d="M 7.453125 0.265625 C 6.296875 0.265625 5.226562 -0.0351562 4.25 -0.640625 C 3.269531 -1.242188 2.492188 -2.085938 1.921875 -3.171875 C 1.347656 -4.253906 1.0625 -5.46875 1.0625 -6.8125 C 1.0625 -8.144531 1.347656 -9.351562 1.921875 -10.4375 C 2.492188 -11.519531 3.269531 -12.363281 4.25 -12.96875 C 5.226562 -13.570312 6.296875 -13.875 7.453125 -13.875 C 8.472656 -13.875 9.398438 -13.644531 10.234375 -13.1875 C 11.066406 -12.726562 11.753906 -12.109375 12.296875 -11.328125 C 12.847656 -10.546875 13.210938 -9.703125 13.390625 -8.796875 L 11.625 -8.796875 C 11.3125 -9.847656 10.800781 -10.679688 10.09375 -11.296875 C 9.382812 -11.910156 8.503906 -12.21875 7.453125 -12.21875 C 6.617188 -12.21875 5.847656 -11.988281 5.140625 -11.53125 C 4.429688 -11.082031 3.867188 -10.445312 3.453125 -9.625 C 3.035156 -8.800781 2.828125 -7.863281 2.828125 -6.8125 C 2.828125 -5.75 3.035156 -4.804688 3.453125 -3.984375 C 3.867188 -3.160156 4.429688 -2.519531 5.140625 -2.0625 C 5.847656 -1.613281 6.617188 -1.390625 7.453125 -1.390625 C 8.523438 -1.390625 9.410156 -1.691406 10.109375 -2.296875 C 10.804688 -2.910156 11.3125 -3.75 11.625 -4.8125 L 13.390625 -4.8125 C 13.210938 -3.90625 12.847656 -3.066406 12.296875 -2.296875 C 11.753906 -1.523438 11.0625 -0.90625 10.21875 -0.4375 C 9.375 0.03125 8.453125 0.265625 7.453125 0.265625 Z M 7.453125 0.265625 "/></g></g><g style="fill:#4b7166;fill-opacity:1;"><g transform="translate(209.974056, 201.670931)"><path style="stroke:none" d="M 6.671875 -13.875 C 7.628906 -13.875 8.488281 -13.660156 9.25 -13.234375 C 10.007812 -12.816406 10.609375 -12.222656 11.046875 -11.453125 C 11.484375 -10.691406 11.703125 -9.820312 11.703125 -8.84375 L 11.703125 0 L 10.390625 0 L 9.9375 -1.84375 L 9.796875 -1.84375 C 9.453125 -1.300781 8.921875 -0.8125 8.203125 -0.375 C 7.484375 0.0507812 6.617188 0.265625 5.609375 0.265625 C 4.703125 0.265625 3.90625 0.0820312 3.21875 -0.28125 C 2.539062 -0.65625 2.015625 -1.148438 1.640625 -1.765625 C 1.273438 -2.378906 1.09375 -3.0625 1.09375 -3.8125 C 1.09375 -4.625 1.335938 -5.351562 1.828125 -6 C 2.328125 -6.644531 3.023438 -7.148438 3.921875 -7.515625 C 4.828125 -7.878906 5.859375 -8.0625 7.015625 -8.0625 L 9.9375 -8.0625 L 9.9375 -8.84375 C 9.9375 -9.863281 9.632812 -10.679688 9.03125 -11.296875 C 8.4375 -11.910156 7.648438 -12.21875 6.671875 -12.21875 C 5.742188 -12.21875 5.007812 -11.984375 4.46875 -11.515625 C 3.9375 -11.046875 3.597656 -10.425781 3.453125 -9.65625 L 1.6875 -9.65625 C 1.78125 -10.425781 2.046875 -11.128906 2.484375 -11.765625 C 2.929688 -12.410156 3.515625 -12.921875 4.234375 -13.296875 C 4.960938 -13.679688 5.773438 -13.875 6.671875 -13.875 Z M 5.796875 -1.390625 C 7.046875 -1.390625 8.046875 -1.753906 8.796875 -2.484375 C 9.554688 -3.222656 9.9375 -4.15625 9.9375 -5.28125 L 9.9375 -6.453125 L 7.296875 -6.453125 C 5.898438 -6.453125 4.8125 -6.21875 4.03125 -5.75 C 3.25 -5.289062 2.859375 -4.644531 2.859375 -3.8125 C 2.859375 -3.082031 3.109375 -2.492188 3.609375 -2.046875 C 4.117188 -1.609375 4.847656 -1.390625 5.796875 -1.390625 Z M 5.796875 -1.390625 "/></g></g><g style="fill:#4b7166;fill-opacity:1;"><g transform="translate(223.498029, 201.670931)"><path style="stroke:none" d="M 3.859375 0 L 2.09375 0 L 2.09375 -19.046875 L 3.859375 -19.046875 Z M 3.859375 0 "/></g></g><g style="fill:#4b7166;fill-opacity:1;"><g transform="translate(229.457294, 201.670931)"><path style="stroke:none" d=""/></g></g><g style="fill:#4b7166;fill-opacity:1;"><g transform="translate(235.93357, 201.670931)"><path style="stroke:none" d="M 10.015625 0.265625 C 8.453125 0.265625 6.992188 -0.15625 5.640625 -1 C 4.296875 -1.851562 3.21875 -3.03125 2.40625 -4.53125 C 1.601562 -6.03125 1.203125 -7.695312 1.203125 -9.53125 C 1.203125 -11.363281 1.601562 -13.023438 2.40625 -14.515625 C 3.21875 -16.015625 4.296875 -17.191406 5.640625 -18.046875 C 6.992188 -18.898438 8.453125 -19.328125 10.015625 -19.328125 C 11.285156 -19.328125 12.46875 -19.035156 13.5625 -18.453125 C 14.664062 -17.867188 15.597656 -17.070312 16.359375 -16.0625 C 17.117188 -15.0625 17.65625 -13.9375 17.96875 -12.6875 L 16.0625 -12.6875 C 15.582031 -14.113281 14.820312 -15.28125 13.78125 -16.1875 C 12.738281 -17.101562 11.484375 -17.5625 10.015625 -17.5625 C 8.796875 -17.5625 7.65625 -17.21875 6.59375 -16.53125 C 5.539062 -15.851562 4.695312 -14.898438 4.0625 -13.671875 C 3.425781 -12.453125 3.109375 -11.070312 3.109375 -9.53125 C 3.109375 -7.988281 3.425781 -6.601562 4.0625 -5.375 C 4.695312 -4.144531 5.539062 -3.191406 6.59375 -2.515625 C 7.65625 -1.835938 8.796875 -1.5 10.015625 -1.5 C 11.535156 -1.5 12.828125 -1.953125 13.890625 -2.859375 C 14.953125 -3.765625 15.71875 -4.9375 16.1875 -6.375 L 18.09375 -6.375 C 17.789062 -5.113281 17.253906 -3.976562 16.484375 -2.96875 C 15.710938 -1.96875 14.765625 -1.175781 13.640625 -0.59375 C 12.523438 -0.0195312 11.316406 0.265625 10.015625 0.265625 Z M 10.015625 0.265625 "/></g></g><g style="fill:#4b7166;fill-opacity:1;"><g transform="translate(255.090265, 201.670931)"><path style="stroke:none" d="M 7.453125 0.265625 C 6.296875 0.265625 5.226562 -0.0351562 4.25 -0.640625 C 3.269531 -1.242188 2.492188 -2.085938 1.921875 -3.171875 C 1.347656 -4.253906 1.0625 -5.46875 1.0625 -6.8125 C 1.0625 -8.144531 1.347656 -9.351562 1.921875 -10.4375 C 2.492188 -11.519531 3.269531 -12.363281 4.25 -12.96875 C 5.226562 -13.570312 6.296875 -13.875 7.453125 -13.875 C 8.617188 -13.875 9.691406 -13.570312 10.671875 -12.96875 C 11.648438 -12.363281 12.425781 -11.519531 13 -10.4375 C 13.570312 -9.351562 13.859375 -8.144531 13.859375 -6.8125 C 13.859375 -5.46875 13.570312 -4.253906 13 -3.171875 C 12.425781 -2.085938 11.648438 -1.242188 10.671875 -0.640625 C 9.691406 -0.0351562 8.617188 0.265625 7.453125 0.265625 Z M 7.453125 -1.390625 C 8.285156 -1.390625 9.054688 -1.613281 9.765625 -2.0625 C 10.472656 -2.519531 11.035156 -3.160156 11.453125 -3.984375 C 11.867188 -4.804688 12.078125 -5.75 12.078125 -6.8125 C 12.078125 -7.863281 11.867188 -8.800781 11.453125 -9.625 C 11.035156 -10.445312 10.472656 -11.082031 9.765625 -11.53125 C 9.054688 -11.988281 8.285156 -12.21875 7.453125 -12.21875 C 6.617188 -12.21875 5.847656 -11.988281 5.140625 -11.53125 C 4.429688 -11.082031 3.867188 -10.445312 3.453125 -9.625 C 3.035156 -8.800781 2.828125 -7.863281 2.828125 -6.8125 C 2.828125 -5.75 3.035156 -4.804688 3.453125 -3.984375 C 3.867188 -3.160156 4.429688 -2.519531 5.140625 -2.0625 C 5.847656 -1.613281 6.617188 -1.390625 7.453125 -1.390625 Z M 7.453125 -1.390625 "/></g></g><g style="fill:#4b7166;fill-opacity:1;"><g transform="translate(270.002016, 201.670931)"><path style="stroke:none" d="M 7.234375 0.265625 C 6.222656 0.265625 5.300781 0.0195312 4.46875 -0.46875 C 3.644531 -0.957031 3 -1.65625 2.53125 -2.5625 C 2.0625 -3.46875 1.828125 -4.519531 1.828125 -5.71875 L 1.828125 -13.609375 L 3.59375 -13.609375 L 3.59375 -5.71875 C 3.59375 -4.375 3.945312 -3.316406 4.65625 -2.546875 C 5.363281 -1.773438 6.28125 -1.390625 7.40625 -1.390625 C 8.601562 -1.390625 9.5625 -1.773438 10.28125 -2.546875 C 11.007812 -3.316406 11.375 -4.375 11.375 -5.71875 L 11.375 -13.609375 L 13.140625 -13.609375 L 13.140625 0 L 11.84375 0 L 11.375 -1.84375 L 11.234375 -1.84375 C 10.878906 -1.28125 10.347656 -0.785156 9.640625 -0.359375 C 8.941406 0.0546875 8.140625 0.265625 7.234375 0.265625 Z M 7.234375 0.265625 "/></g></g><g style="fill:#4b7166;fill-opacity:1;"><g transform="translate(285.104236, 201.670931)"><path style="stroke:none" d="M 1.953125 0 L 1.953125 -13.609375 L 3.265625 -13.609375 L 3.734375 -11.765625 L 3.859375 -11.765625 C 4.222656 -12.328125 4.753906 -12.816406 5.453125 -13.234375 C 6.148438 -13.660156 6.953125 -13.875 7.859375 -13.875 C 8.878906 -13.875 9.800781 -13.628906 10.625 -13.140625 C 11.457031 -12.648438 12.109375 -11.953125 12.578125 -11.046875 C 13.046875 -10.140625 13.28125 -9.085938 13.28125 -7.890625 L 13.28125 0 L 11.515625 0 L 11.515625 -7.890625 C 11.515625 -9.234375 11.160156 -10.289062 10.453125 -11.0625 C 9.742188 -11.832031 8.828125 -12.21875 7.703125 -12.21875 C 6.503906 -12.21875 5.539062 -11.832031 4.8125 -11.0625 C 4.09375 -10.289062 3.734375 -9.234375 3.734375 -7.890625 L 3.734375 0 Z M 1.953125 0 "/></g></g><g style="fill:#4b7166;fill-opacity:1;"><g transform="translate(300.206455, 201.670931)"><path style="stroke:none" d="M 6.0625 0.265625 C 5.144531 0.265625 4.3125 0.0703125 3.5625 -0.3125 C 2.820312 -0.695312 2.234375 -1.21875 1.796875 -1.875 C 1.359375 -2.53125 1.113281 -3.222656 1.0625 -3.953125 L 2.828125 -3.953125 C 2.921875 -3.179688 3.25 -2.5625 3.8125 -2.09375 C 4.375 -1.625 5.125 -1.390625 6.0625 -1.390625 C 6.988281 -1.390625 7.703125 -1.597656 8.203125 -2.015625 C 8.703125 -2.429688 8.953125 -2.957031 8.953125 -3.59375 C 8.953125 -4.0625 8.804688 -4.445312 8.515625 -4.75 C 8.222656 -5.0625 7.867188 -5.3125 7.453125 -5.5 C 7.035156 -5.695312 6.445312 -5.914062 5.6875 -6.15625 C 4.757812 -6.445312 4.015625 -6.722656 3.453125 -6.984375 C 2.890625 -7.242188 2.410156 -7.625 2.015625 -8.125 C 1.617188 -8.625 1.421875 -9.273438 1.421875 -10.078125 C 1.421875 -10.773438 1.601562 -11.414062 1.96875 -12 C 2.34375 -12.582031 2.863281 -13.039062 3.53125 -13.375 C 4.207031 -13.707031 4.988281 -13.875 5.875 -13.875 C 6.75 -13.875 7.53125 -13.691406 8.21875 -13.328125 C 8.90625 -12.972656 9.445312 -12.484375 9.84375 -11.859375 C 10.25 -11.234375 10.476562 -10.546875 10.53125 -9.796875 L 8.765625 -9.796875 C 8.671875 -10.554688 8.378906 -11.148438 7.890625 -11.578125 C 7.398438 -12.003906 6.726562 -12.21875 5.875 -12.21875 C 5.019531 -12.21875 4.359375 -12.019531 3.890625 -11.625 C 3.421875 -11.238281 3.1875 -10.75 3.1875 -10.15625 C 3.1875 -9.5 3.445312 -9.003906 3.96875 -8.671875 C 4.5 -8.335938 5.304688 -8 6.390625 -7.65625 C 7.316406 -7.34375 8.066406 -7.046875 8.640625 -6.765625 C 9.210938 -6.484375 9.703125 -6.085938 10.109375 -5.578125 C 10.515625 -5.066406 10.71875 -4.40625 10.71875 -3.59375 C 10.71875 -2.488281 10.300781 -1.566406 9.46875 -0.828125 C 8.632812 -0.0976562 7.5 0.265625 6.0625 0.265625 Z M 6.0625 0.265625 "/></g></g><g style="fill:#4b7166;fill-opacity:1;"><g transform="translate(312.04334, 201.670931)"><path style="stroke:none" d="M 13.5625 -7.21875 C 13.5625 -6.65625 13.523438 -6.226562 13.453125 -5.9375 L 2.890625 -5.9375 C 3.035156 -4.539062 3.53125 -3.429688 4.375 -2.609375 C 5.21875 -1.796875 6.265625 -1.390625 7.515625 -1.390625 C 9.179688 -1.390625 10.441406 -2.101562 11.296875 -3.53125 L 13.0625 -3.53125 C 12.644531 -2.425781 11.925781 -1.515625 10.90625 -0.796875 C 9.894531 -0.0859375 8.742188 0.265625 7.453125 0.265625 C 6.253906 0.265625 5.171875 -0.03125 4.203125 -0.625 C 3.234375 -1.226562 2.46875 -2.0625 1.90625 -3.125 C 1.34375 -4.195312 1.0625 -5.425781 1.0625 -6.8125 C 1.0625 -8.144531 1.347656 -9.351562 1.921875 -10.4375 C 2.492188 -11.519531 3.269531 -12.363281 4.25 -12.96875 C 5.226562 -13.570312 6.296875 -13.875 7.453125 -13.875 C 8.597656 -13.875 9.632812 -13.578125 10.5625 -12.984375 C 11.5 -12.398438 12.234375 -11.597656 12.765625 -10.578125 C 13.296875 -9.566406 13.5625 -8.445312 13.5625 -7.21875 Z M 7.453125 -12.21875 C 6.691406 -12.21875 5.976562 -12.019531 5.3125 -11.625 C 4.65625 -11.238281 4.101562 -10.6875 3.65625 -9.96875 C 3.21875 -9.257812 2.953125 -8.453125 2.859375 -7.546875 L 11.765625 -7.546875 C 11.671875 -8.898438 11.222656 -10.015625 10.421875 -10.890625 C 9.628906 -11.773438 8.640625 -12.21875 7.453125 -12.21875 Z M 7.453125 -12.21875 "/></g></g><g style="fill:#4b7166;fill-opacity:1;"><g transform="translate(326.655746, 201.670931)"><path style="stroke:none" d="M 3.859375 0 L 2.09375 0 L 2.09375 -19.046875 L 3.859375 -19.046875 Z M 3.859375 0 "/></g></g><g style="fill:#4b7166;fill-opacity:1;"><g transform="translate(332.615029, 201.670931)"><path style="stroke:none" d="M 3.859375 0 L 2.09375 0 L 2.09375 -19.046875 L 3.859375 -19.046875 Z M 3.859375 0 "/></g></g><g style="fill:#4b7166;fill-opacity:1;"><g transform="translate(338.574312, 201.670931)"><path style="stroke:none" d="M 7.453125 0.265625 C 6.296875 0.265625 5.226562 -0.0351562 4.25 -0.640625 C 3.269531 -1.242188 2.492188 -2.085938 1.921875 -3.171875 C 1.347656 -4.253906 1.0625 -5.46875 1.0625 -6.8125 C 1.0625 -8.144531 1.347656 -9.351562 1.921875 -10.4375 C 2.492188 -11.519531 3.269531 -12.363281 4.25 -12.96875 C 5.226562 -13.570312 6.296875 -13.875 7.453125 -13.875 C 8.617188 -13.875 9.691406 -13.570312 10.671875 -12.96875 C 11.648438 -12.363281 12.425781 -11.519531 13 -10.4375 C 13.570312 -9.351562 13.859375 -8.144531 13.859375 -6.8125 C 13.859375 -5.46875 13.570312 -4.253906 13 -3.171875 C 12.425781 -2.085938 11.648438 -1.242188 10.671875 -0.640625 C 9.691406 -0.0351562 8.617188 0.265625 7.453125 0.265625 Z M 7.453125 -1.390625 C 8.285156 -1.390625 9.054688 -1.613281 9.765625 -2.0625 C 10.472656 -2.519531 11.035156 -3.160156 11.453125 -3.984375 C 11.867188 -4.804688 12.078125 -5.75 12.078125 -6.8125 C 12.078125 -7.863281 11.867188 -8.800781 11.453125 -9.625 C 11.035156 -10.445312 10.472656 -11.082031 9.765625 -11.53125 C 9.054688 -11.988281 8.285156 -12.21875 7.453125 -12.21875 C 6.617188 -12.21875 5.847656 -11.988281 5.140625 -11.53125 C 4.429688 -11.082031 3.867188 -10.445312 3.453125 -9.625 C 3.035156 -8.800781 2.828125 -7.863281 2.828125 -6.8125 C 2.828125 -5.75 3.035156 -4.804688 3.453125 -3.984375 C 3.867188 -3.160156 4.429688 -2.519531 5.140625 -2.0625 C 5.847656 -1.613281 6.617188 -1.390625 7.453125 -1.390625 Z M 7.453125 -1.390625 "/></g></g><g style="fill:#4b7166;fill-opacity:1;"><g transform="translate(353.486045, 201.670931)"><path style="stroke:none" d="M 1.953125 0 L 1.953125 -13.609375 L 3.265625 -13.609375 L 3.734375 -11.765625 L 3.859375 -11.765625 C 4.203125 -12.285156 4.707031 -12.765625 5.375 -13.203125 C 6.050781 -13.648438 6.773438 -13.875 7.546875 -13.875 C 7.960938 -13.875 8.285156 -13.835938 8.515625 -13.765625 L 8.515625 -12 C 8.222656 -12.070312 7.914062 -12.109375 7.59375 -12.109375 C 6.445312 -12.109375 5.515625 -11.722656 4.796875 -10.953125 C 4.085938 -10.179688 3.734375 -9.125 3.734375 -7.78125 L 3.734375 0 Z M 1.953125 0 "/></g></g><g style="fill:#4b7166;fill-opacity:1;"><g transform="translate(87.135546, 100.212692)"><path style="stroke:none" d="M 23.40625 0.78125 C 21 0.78125 18.585938 0.375 16.171875 -0.4375 C 13.765625 -1.25 11.59375 -2.488281 9.65625 -4.15625 C 7.71875 -5.832031 6.160156 -7.941406 4.984375 -10.484375 C 3.804688 -13.023438 3.21875 -16.046875 3.21875 -19.546875 C 3.21875 -23.523438 4.144531 -27.03125 6 -30.0625 C 7.863281 -33.101562 10.335938 -35.488281 13.421875 -37.21875 C 16.515625 -38.945312 19.84375 -39.8125 23.40625 -39.8125 C 25.863281 -39.8125 28.269531 -39.40625 30.625 -38.59375 C 32.976562 -37.78125 35.132812 -36.550781 37.09375 -34.90625 C 39.0625 -33.257812 40.617188 -31.148438 41.765625 -28.578125 C 42.921875 -26.015625 43.5 -22.976562 43.5 -19.46875 C 43.5 -16.125 42.894531 -13.179688 41.6875 -10.640625 C 40.488281 -8.097656 38.894531 -5.988281 36.90625 -4.3125 C 34.914062 -2.644531 32.742188 -1.378906 30.390625 -0.515625 C 28.035156 0.347656 25.707031 0.78125 23.40625 0.78125 Z M 7.296875 -22.53125 C 7.296875 -19.863281 7.738281 -17.234375 8.625 -14.640625 C 9.519531 -12.054688 10.78125 -9.710938 12.40625 -7.609375 C 14.03125 -5.515625 15.941406 -3.835938 18.140625 -2.578125 C 20.335938 -1.328125 22.742188 -0.703125 25.359375 -0.703125 C 28.398438 -0.703125 30.976562 -1.394531 33.09375 -2.78125 C 35.21875 -4.175781 36.84375 -6.050781 37.96875 -8.40625 C 39.09375 -10.757812 39.65625 -13.398438 39.65625 -16.328125 C 39.65625 -18.898438 39.207031 -21.492188 38.3125 -24.109375 C 37.425781 -26.722656 36.1875 -29.113281 34.59375 -31.28125 C 33 -33.457031 31.097656 -35.203125 28.890625 -36.515625 C 26.691406 -37.828125 24.285156 -38.484375 21.671875 -38.484375 C 18.585938 -38.484375 15.972656 -37.785156 13.828125 -36.390625 C 11.679688 -35.003906 10.054688 -33.109375 8.953125 -30.703125 C 7.847656 -28.296875 7.296875 -25.570312 7.296875 -22.53125 Z M 7.296875 -22.53125 "/></g></g><g style="fill:#4b7166;fill-opacity:1;"><g transform="translate(134.170073, 100.212692)"><path style="stroke:none" d="M 17.828125 0.703125 C 13.742188 0.703125 10.664062 -0.550781 8.59375 -3.0625 C 6.53125 -5.570312 5.5 -8.921875 5.5 -13.109375 L 5.5 -28.03125 C 5.5 -30.175781 5.394531 -31.769531 5.1875 -32.8125 C 4.976562 -33.863281 4.648438 -34.613281 4.203125 -35.0625 C 3.753906 -35.507812 3.140625 -35.890625 2.359375 -36.203125 L 2.359375 -36.90625 L 9.03125 -39.8125 L 9.578125 -39.34375 L 9.578125 -14.921875 C 9.578125 -10.160156 10.476562 -6.742188 12.28125 -4.671875 C 14.09375 -2.609375 16.648438 -1.578125 19.953125 -1.578125 C 22.878906 -1.578125 25.492188 -2.375 27.796875 -3.96875 C 30.097656 -5.5625 32.035156 -7.273438 33.609375 -9.109375 L 33.609375 -28.03125 C 33.609375 -30.175781 33.515625 -31.769531 33.328125 -32.8125 C 33.148438 -33.863281 32.820312 -34.613281 32.34375 -35.0625 C 31.875 -35.507812 31.25 -35.890625 30.46875 -36.203125 L 30.46875 -36.90625 L 37.140625 -39.8125 L 37.6875 -39.34375 L 37.6875 -9.96875 C 37.6875 -7.5625 37.789062 -5.742188 38 -4.515625 C 38.21875 -3.285156 38.5625 -2.421875 39.03125 -1.921875 C 39.5 -1.421875 40.101562 -1.066406 40.84375 -0.859375 L 40.84375 0 L 35.578125 0 C 34.890625 0 34.390625 -0.191406 34.078125 -0.578125 C 33.765625 -0.972656 33.609375 -1.828125 33.609375 -3.140625 L 33.609375 -7.703125 C 32.460938 -6.441406 31.085938 -5.15625 29.484375 -3.84375 C 27.890625 -2.539062 26.109375 -1.457031 24.140625 -0.59375 C 22.179688 0.269531 20.078125 0.703125 17.828125 0.703125 Z M 17.828125 0.703125 "/></g></g><g style="fill:#4b7166;fill-opacity:1;"><g transform="translate(178.142253, 100.212692)"><path style="stroke:none" d="M 2.90625 0 L 2.90625 -0.859375 C 3.632812 -1.066406 4.234375 -1.421875 4.703125 -1.921875 C 5.179688 -2.421875 5.523438 -3.285156 5.734375 -4.515625 C 5.941406 -5.742188 6.046875 -7.5625 6.046875 -9.96875 L 6.046875 -28.03125 C 6.046875 -30.175781 5.953125 -31.769531 5.765625 -32.8125 C 5.585938 -33.863281 5.257812 -34.613281 4.78125 -35.0625 C 4.3125 -35.507812 3.6875 -35.890625 2.90625 -36.203125 L 2.90625 -36.90625 L 9.578125 -39.8125 L 10.125 -39.34375 L 10.125 -29.375 C 10.757812 -31.050781 11.597656 -32.582031 12.640625 -33.96875 C 13.691406 -35.351562 14.710938 -36.4375 15.703125 -37.21875 C 16.703125 -37.957031 17.867188 -38.570312 19.203125 -39.0625 C 20.535156 -39.5625 22.117188 -39.8125 23.953125 -39.8125 C 25.785156 -39.8125 27.117188 -39.613281 27.953125 -39.21875 C 28.796875 -38.832031 29.21875 -38.40625 29.21875 -37.9375 C 29.21875 -37.09375 28.835938 -36.25 28.078125 -35.40625 C 27.316406 -34.570312 26.410156 -34.15625 25.359375 -34.15625 C 24.421875 -34.15625 23.148438 -34.351562 21.546875 -34.75 C 19.953125 -35.144531 18.109375 -35.601562 16.015625 -36.125 C 15.128906 -35.601562 14.253906 -34.722656 13.390625 -33.484375 C 12.523438 -32.253906 11.789062 -30.929688 11.1875 -29.515625 C 10.582031 -28.109375 10.226562 -26.800781 10.125 -25.59375 L 10.125 -9.96875 C 10.125 -7.5625 10.226562 -5.742188 10.4375 -4.515625 C 10.65625 -3.285156 11 -2.421875 11.46875 -1.921875 C 11.9375 -1.421875 12.535156 -1.066406 13.265625 -0.859375 L 13.265625 0 Z M 2.90625 0 "/></g></g><g style="fill:#4b7166;fill-opacity:1;"><g transform="translate(208.45165, 100.212692)"><path style="stroke:none" d="M 15 0.78125 C 12.75 0.78125 10.890625 0.0078125 9.421875 -1.53125 C 7.953125 -3.070312 7.21875 -5.804688 7.21875 -9.734375 L 7.21875 -38.328125 L 2.203125 -38.328125 L 2.203125 -39.265625 L 10.4375 -48.140625 L 11.3125 -48.140625 L 11.3125 -39.265625 L 23.09375 -39.265625 L 22.609375 -38.328125 L 11.3125 -38.328125 L 11.3125 -9.890625 C 11.3125 -6.960938 11.882812 -4.921875 13.03125 -3.765625 C 14.1875 -2.617188 15.578125 -2.046875 17.203125 -2.046875 C 18.554688 -2.046875 19.925781 -2.394531 21.3125 -3.09375 C 22.707031 -3.800781 24.054688 -4.890625 25.359375 -6.359375 L 26 -5.734375 C 25.207031 -4.785156 24.222656 -3.800781 23.046875 -2.78125 C 21.867188 -1.757812 20.597656 -0.910156 19.234375 -0.234375 C 17.878906 0.441406 16.46875 0.78125 15 0.78125 Z M 15 0.78125 "/></g></g><g style="fill:#4b7166;fill-opacity:1;"><g transform="translate(234.363822, 100.212692)"><path style="stroke:none" d="M 2.90625 0 L 2.90625 -0.859375 C 3.632812 -1.066406 4.234375 -1.421875 4.703125 -1.921875 C 5.179688 -2.421875 5.523438 -3.285156 5.734375 -4.515625 C 5.941406 -5.742188 6.046875 -7.5625 6.046875 -9.96875 L 6.046875 -28.03125 C 6.046875 -30.175781 5.953125 -31.769531 5.765625 -32.8125 C 5.585938 -33.863281 5.257812 -34.613281 4.78125 -35.0625 C 4.3125 -35.507812 3.6875 -35.890625 2.90625 -36.203125 L 2.90625 -36.90625 L 9.578125 -39.8125 L 10.125 -39.34375 L 10.125 -32.515625 C 12.539062 -34.503906 15.238281 -36.21875 18.21875 -37.65625 C 21.207031 -39.09375 24.21875 -39.8125 27.25 -39.8125 C 31.382812 -39.8125 34.550781 -38.566406 36.75 -36.078125 C 38.945312 -33.597656 40.046875 -30.023438 40.046875 -25.359375 L 40.046875 -9.96875 C 40.046875 -7.5625 40.148438 -5.742188 40.359375 -4.515625 C 40.566406 -3.285156 40.90625 -2.421875 41.375 -1.921875 C 41.851562 -1.421875 42.457031 -1.066406 43.1875 -0.859375 L 43.1875 0 L 32.828125 0 L 32.828125 -0.859375 C 33.554688 -1.066406 34.15625 -1.421875 34.625 -1.921875 C 35.101562 -2.421875 35.445312 -3.285156 35.65625 -4.515625 C 35.863281 -5.742188 35.96875 -7.5625 35.96875 -9.96875 L 35.96875 -23.71875 C 35.96875 -33.09375 31.960938 -37.78125 23.953125 -37.78125 C 21.492188 -37.78125 19.046875 -37.109375 16.609375 -35.765625 C 14.171875 -34.429688 12.007812 -32.953125 10.125 -31.328125 L 10.125 -9.96875 C 10.125 -7.5625 10.226562 -5.742188 10.4375 -4.515625 C 10.65625 -3.285156 11 -2.421875 11.46875 -1.921875 C 11.9375 -1.421875 12.535156 -1.066406 13.265625 -0.859375 L 13.265625 0 Z M 2.90625 0 "/></g></g><g style="fill:#4b7166;fill-opacity:1;"><g transform="translate(279.749395, 100.212692)"><path style="stroke:none" d="M 21.90625 0.78125 C 19.757812 0.78125 17.585938 0.375 15.390625 -0.4375 C 13.191406 -1.25 11.175781 -2.453125 9.34375 -4.046875 C 7.507812 -5.640625 6.03125 -7.664062 4.90625 -10.125 C 3.78125 -12.59375 3.21875 -15.472656 3.21875 -18.765625 C 3.21875 -22.847656 4.117188 -26.472656 5.921875 -29.640625 C 7.734375 -32.804688 10.207031 -35.289062 13.34375 -37.09375 C 16.488281 -38.90625 20.023438 -39.8125 23.953125 -39.8125 C 28.453125 -39.8125 32.078125 -38.539062 34.828125 -36 C 37.578125 -33.46875 39.054688 -30.1875 39.265625 -26.15625 L 7.703125 -26.15625 C 7.378906 -24.6875 7.21875 -23.113281 7.21875 -21.4375 C 7.21875 -17.664062 7.960938 -14.363281 9.453125 -11.53125 C 10.953125 -8.707031 13.023438 -6.523438 15.671875 -4.984375 C 18.316406 -3.441406 21.363281 -2.671875 24.8125 -2.671875 C 28.007812 -2.671875 30.734375 -3.347656 32.984375 -4.703125 C 35.234375 -6.066406 37.351562 -7.875 39.34375 -10.125 L 39.96875 -9.5 C 37.769531 -6.78125 35.164062 -4.382812 32.15625 -2.3125 C 29.144531 -0.25 25.726562 0.78125 21.90625 0.78125 Z M 7.859375 -27.09375 L 34.875 -27.09375 C 34.707031 -28.082031 34.320312 -29.21875 33.71875 -30.5 C 33.125 -31.789062 32.273438 -33.035156 31.171875 -34.234375 C 30.078125 -35.441406 28.703125 -36.453125 27.046875 -37.265625 C 25.398438 -38.078125 23.453125 -38.484375 21.203125 -38.484375 C 17.847656 -38.484375 15.003906 -37.460938 12.671875 -35.421875 C 10.347656 -33.378906 8.742188 -30.601562 7.859375 -27.09375 Z M 7.859375 -27.09375 "/></g></g><g style="fill:#4b7166;fill-opacity:1;"><g transform="translate(322.229667, 100.212692)"><path style="stroke:none" d="M 1.8125 15.15625 C 0.394531 15.15625 -0.769531 14.957031 -1.6875 14.5625 C -2.601562 14.175781 -3.0625 13.742188 -3.0625 13.265625 C -3.0625 12.535156 -2.679688 11.765625 -1.921875 10.953125 C -1.160156 10.140625 -0.285156 9.734375 0.703125 9.734375 C 1.335938 9.734375 2.175781 9.878906 3.21875 10.171875 C 4.269531 10.460938 5.382812 10.765625 6.5625 11.078125 C 7.738281 11.390625 8.820312 11.648438 9.8125 11.859375 C 11.644531 10.546875 13.304688 8.789062 14.796875 6.59375 C 16.296875 4.394531 17.59375 2.144531 18.6875 -0.15625 L 6.28125 -30.078125 C 5.34375 -32.328125 4.519531 -34.015625 3.8125 -35.140625 C 3.101562 -36.265625 2.457031 -37.050781 1.875 -37.5 C 1.300781 -37.945312 0.753906 -38.25 0.234375 -38.40625 L 0.234375 -39.265625 L 9.96875 -39.265625 L 9.96875 -38.40625 C 9.238281 -38.25 8.769531 -37.945312 8.5625 -37.5 C 8.351562 -37.050781 8.414062 -36.265625 8.75 -35.140625 C 9.09375 -34.015625 9.738281 -32.328125 10.6875 -30.078125 L 20.96875 -5.421875 L 31.640625 -30.078125 C 32.691406 -32.535156 33.203125 -34.472656 33.171875 -35.890625 C 33.148438 -37.304688 32.457031 -38.144531 31.09375 -38.40625 L 31.09375 -39.265625 L 39.5 -39.265625 L 39.5 -38.40625 C 38.875 -38.25 38.21875 -37.945312 37.53125 -37.5 C 36.851562 -37.050781 36.117188 -36.265625 35.328125 -35.140625 C 34.546875 -34.015625 33.6875 -32.328125 32.75 -30.078125 L 20.34375 -1.578125 C 18.457031 2.722656 16.570312 6.023438 14.6875 8.328125 C 12.800781 10.628906 11.003906 12.265625 9.296875 13.234375 C 7.597656 14.203125 6.09375 14.765625 4.78125 14.921875 C 3.476562 15.078125 2.488281 15.15625 1.8125 15.15625 Z M 1.8125 15.15625 "/></g></g><g style="fill:#4b7166;fill-opacity:1;"><g transform="translate(139.083613, 162.520257)"><path style="stroke:none" d="M 21.90625 0.78125 C 19.757812 0.78125 17.585938 0.375 15.390625 -0.4375 C 13.191406 -1.25 11.175781 -2.453125 9.34375 -4.046875 C 7.507812 -5.640625 6.03125 -7.664062 4.90625 -10.125 C 3.78125 -12.59375 3.21875 -15.472656 3.21875 -18.765625 C 3.21875 -22.847656 4.117188 -26.472656 5.921875 -29.640625 C 7.734375 -32.804688 10.207031 -35.289062 13.34375 -37.09375 C 16.488281 -38.90625 20.023438 -39.8125 23.953125 -39.8125 C 28.453125 -39.8125 32.078125 -38.539062 34.828125 -36 C 37.578125 -33.46875 39.054688 -30.1875 39.265625 -26.15625 L 7.703125 -26.15625 C 7.378906 -24.6875 7.21875 -23.113281 7.21875 -21.4375 C 7.21875 -17.664062 7.960938 -14.363281 9.453125 -11.53125 C 10.953125 -8.707031 13.023438 -6.523438 15.671875 -4.984375 C 18.316406 -3.441406 21.363281 -2.671875 24.8125 -2.671875 C 28.007812 -2.671875 30.734375 -3.347656 32.984375 -4.703125 C 35.234375 -6.066406 37.351562 -7.875 39.34375 -10.125 L 39.96875 -9.5 C 37.769531 -6.78125 35.164062 -4.382812 32.15625 -2.3125 C 29.144531 -0.25 25.726562 0.78125 21.90625 0.78125 Z M 7.859375 -27.09375 L 34.875 -27.09375 C 34.707031 -28.082031 34.320312 -29.21875 33.71875 -30.5 C 33.125 -31.789062 32.273438 -33.035156 31.171875 -34.234375 C 30.078125 -35.441406 28.703125 -36.453125 27.046875 -37.265625 C 25.398438 -38.078125 23.453125 -38.484375 21.203125 -38.484375 C 17.847656 -38.484375 15.003906 -37.460938 12.671875 -35.421875 C 10.347656 -33.378906 8.742188 -30.601562 7.859375 -27.09375 Z M 7.859375 -27.09375 "/></g></g><g style="fill:#4b7166;fill-opacity:1;"><g transform="translate(181.563885, 162.520257)"><path style="stroke:none" d="M 21.359375 0.78125 C 18.222656 0.78125 15.265625 -0.015625 12.484375 -1.609375 C 9.710938 -3.203125 7.472656 -5.503906 5.765625 -8.515625 C 4.066406 -11.523438 3.21875 -15.097656 3.21875 -19.234375 C 3.21875 -21.703125 3.632812 -24.140625 4.46875 -26.546875 C 5.3125 -28.953125 6.554688 -31.132812 8.203125 -33.09375 C 9.859375 -35.0625 11.941406 -36.644531 14.453125 -37.84375 C 16.960938 -39.050781 19.867188 -39.679688 23.171875 -39.734375 C 25.992188 -39.785156 28.53125 -39.335938 30.78125 -38.390625 C 33.03125 -37.453125 34.890625 -36.410156 36.359375 -35.265625 L 36.359375 -51.59375 C 36.359375 -53.738281 36.265625 -55.332031 36.078125 -56.375 C 35.898438 -57.425781 35.570312 -58.175781 35.09375 -58.625 C 34.625 -59.070312 34 -59.453125 33.21875 -59.765625 L 33.21875 -60.46875 L 39.890625 -63.375 L 40.4375 -62.90625 L 40.4375 -9.96875 C 40.4375 -7.5625 40.539062 -5.742188 40.75 -4.515625 C 40.96875 -3.285156 41.3125 -2.421875 41.78125 -1.921875 C 42.25 -1.421875 42.847656 -1.066406 43.578125 -0.859375 L 43.578125 0 L 37.9375 0 C 36.882812 0 36.359375 -0.523438 36.359375 -1.578125 L 36.359375 -7.0625 C 33.847656 -4.601562 31.347656 -2.679688 28.859375 -1.296875 C 26.367188 0.0859375 23.867188 0.78125 21.359375 0.78125 Z M 7.140625 -22.140625 C 7.140625 -18.484375 7.804688 -15.132812 9.140625 -12.09375 C 10.484375 -9.050781 12.359375 -6.640625 14.765625 -4.859375 C 17.171875 -3.085938 20.023438 -2.203125 23.328125 -2.203125 C 25.734375 -2.203125 28.007812 -2.738281 30.15625 -3.8125 C 32.300781 -4.882812 34.367188 -6.363281 36.359375 -8.25 L 36.359375 -28.34375 C 36.097656 -29.914062 35.242188 -31.472656 33.796875 -33.015625 C 32.359375 -34.566406 30.578125 -35.863281 28.453125 -36.90625 C 26.335938 -37.957031 24.078125 -38.484375 21.671875 -38.484375 C 19.003906 -38.484375 16.570312 -37.867188 14.375 -36.640625 C 12.175781 -35.410156 10.421875 -33.578125 9.109375 -31.140625 C 7.796875 -28.703125 7.140625 -25.703125 7.140625 -22.140625 Z M 7.140625 -22.140625 "/></g></g><g style="fill:#4b7166;fill-opacity:1;"><g transform="translate(227.342064, 162.520257)"><path style="stroke:none" d="M 3.609375 0 L 3.609375 -0.859375 C 4.347656 -1.066406 4.953125 -1.421875 5.421875 -1.921875 C 5.890625 -2.421875 6.226562 -3.285156 6.4375 -4.515625 C 6.644531 -5.742188 6.75 -7.5625 6.75 -9.96875 L 6.75 -51.59375 C 6.75 -53.738281 6.644531 -55.332031 6.4375 -56.375 C 6.226562 -57.425781 5.898438 -58.175781 5.453125 -58.625 C 5.015625 -59.070312 4.398438 -59.453125 3.609375 -59.765625 L 3.609375 -60.46875 L 10.28125 -63.375 L 10.84375 -62.90625 L 10.84375 -9.96875 C 10.84375 -7.5625 10.945312 -5.742188 11.15625 -4.515625 C 11.363281 -3.285156 11.703125 -2.421875 12.171875 -1.921875 C 12.640625 -1.421875 13.242188 -1.066406 13.984375 -0.859375 L 13.984375 0 Z M 3.609375 0 "/></g></g><g style="fill:#4b7166;fill-opacity:1;"><g transform="translate(245.245028, 162.520257)"><path style="stroke:none" d="M 33.6875 0 C 32.644531 0 32.125 -0.523438 32.125 -1.578125 L 32.125 -16.5625 C 31.226562 -13.164062 29.863281 -10.15625 28.03125 -7.53125 C 26.195312 -4.914062 24.101562 -2.875 21.75 -1.40625 C 19.394531 0.0507812 16.988281 0.78125 14.53125 0.78125 C 12.59375 0.78125 10.742188 0.40625 8.984375 -0.34375 C 7.234375 -1.101562 5.820312 -2.242188 4.75 -3.765625 C 3.675781 -5.285156 3.140625 -7.195312 3.140625 -9.5 C 3.140625 -12.28125 3.953125 -14.519531 5.578125 -16.21875 C 7.203125 -17.914062 9.332031 -19.285156 11.96875 -20.328125 C 14.613281 -21.378906 17.429688 -22.300781 20.421875 -23.09375 L 32.046875 -26.15625 C 31.835938 -29.976562 30.773438 -32.867188 28.859375 -34.828125 C 26.953125 -36.796875 24.113281 -37.78125 20.34375 -37.78125 C 17.820312 -37.78125 15.382812 -37.160156 13.03125 -35.921875 C 10.675781 -34.691406 8.554688 -32.847656 6.671875 -30.390625 L 5.96875 -30.9375 C 8.269531 -33.875 10.78125 -36.085938 13.5 -37.578125 C 16.226562 -39.066406 19.210938 -39.8125 22.453125 -39.8125 C 27.222656 -39.8125 30.707031 -38.566406 32.90625 -36.078125 C 35.101562 -33.597656 36.203125 -30.34375 36.203125 -26.3125 L 36.203125 -9.96875 C 36.203125 -7.5625 36.304688 -5.742188 36.515625 -4.515625 C 36.722656 -3.285156 37.0625 -2.421875 37.53125 -1.921875 C 38.007812 -1.421875 38.613281 -1.066406 39.34375 -0.859375 L 39.34375 0 Z M 7.453125 -11.078125 C 7.503906 -8.554688 8.316406 -6.523438 9.890625 -4.984375 C 11.460938 -3.441406 13.609375 -2.671875 16.328125 -2.671875 C 18.640625 -2.671875 20.75 -3.242188 22.65625 -4.390625 C 24.5625 -5.546875 26.222656 -7.09375 27.640625 -9.03125 C 29.054688 -10.96875 30.15625 -13.097656 30.9375 -15.421875 C 31.726562 -17.753906 32.125 -20.097656 32.125 -22.453125 L 32.125 -25.203125 L 20.734375 -22.21875 C 16.597656 -21.125 13.335938 -19.789062 10.953125 -18.21875 C 8.566406 -16.644531 7.398438 -14.265625 7.453125 -11.078125 Z M 7.453125 -11.078125 "/></g></g><g style="fill:#4b7166;fill-opacity:1;"><g transform="translate(286.783027, 162.520257)"><path style="stroke:none" d="M 3.609375 0 L 3.609375 -0.859375 C 4.347656 -1.066406 4.953125 -1.421875 5.421875 -1.921875 C 5.890625 -2.421875 6.226562 -3.285156 6.4375 -4.515625 C 6.644531 -5.742188 6.75 -7.5625 6.75 -9.96875 L 6.75 -51.59375 C 6.75 -53.738281 6.644531 -55.332031 6.4375 -56.375 C 6.226562 -57.425781 5.898438 -58.175781 5.453125 -58.625 C 5.015625 -59.070312 4.398438 -59.453125 3.609375 -59.765625 L 3.609375 -60.46875 L 10.28125 -63.375 L 10.84375 -62.90625 L 10.84375 -16.40625 L 25.765625 -30.390625 C 28.429688 -32.847656 30.09375 -34.742188 30.75 -36.078125 C 31.40625 -37.421875 31.257812 -38.351562 30.3125 -38.875 L 30.3125 -39.265625 L 38.875 -39.265625 L 38.875 -38.40625 C 38.144531 -38.195312 37.375 -37.945312 36.5625 -37.65625 C 35.75 -37.363281 34.78125 -36.835938 33.65625 -36.078125 C 32.53125 -35.328125 31.078125 -34.113281 29.296875 -32.4375 L 22.9375 -26.46875 L 31.890625 -10.28125 C 33.398438 -7.507812 34.835938 -5.296875 36.203125 -3.640625 C 37.566406 -1.992188 39.082031 -1.039062 40.75 -0.78125 L 40.75 0 L 36.828125 0 C 35.578125 0 34.503906 -0.300781 33.609375 -0.90625 C 32.722656 -1.507812 31.847656 -2.488281 30.984375 -3.84375 C 30.117188 -5.207031 29.03125 -7.066406 27.71875 -9.421875 L 19.953125 -23.640625 L 10.84375 -15.078125 L 10.84375 -9.96875 C 10.84375 -7.5625 10.945312 -5.742188 11.15625 -4.515625 C 11.363281 -3.285156 11.703125 -2.421875 12.171875 -1.921875 C 12.640625 -1.421875 13.242188 -1.066406 13.984375 -0.859375 L 13.984375 0 Z M 3.609375 0 "/></g></g><g style="fill:#4b7166;fill-opacity:1;"><g transform="translate(81.190192, 166.2509)"><path style="stroke:none" d="M 35.921875 1.265625 C 31.453125 1.265625 27.316406 0.78125 23.515625 -0.1875 C 19.722656 -1.15625 16.394531 -2.332031 13.53125 -3.71875 C 10.664062 -5.113281 8.347656 -6.445312 6.578125 -7.71875 L 5.6875 -23.90625 L 6.953125 -24.03125 C 8.390625 -19.976562 10.304688 -16.179688 12.703125 -12.640625 C 15.109375 -9.109375 18.332031 -6.222656 22.375 -3.984375 C 26.425781 -1.742188 31.53125 -0.625 37.6875 -0.625 C 41.570312 -0.625 45.070312 -1.40625 48.1875 -2.96875 C 51.3125 -4.53125 53.820312 -6.640625 55.71875 -9.296875 C 57.613281 -11.953125 58.5625 -14.96875 58.5625 -18.34375 C 58.5625 -21.539062 57.757812 -24.363281 56.15625 -26.8125 C 54.550781 -29.257812 52.460938 -31.390625 49.890625 -33.203125 C 47.328125 -35.015625 44.523438 -36.59375 41.484375 -37.9375 C 38.453125 -39.289062 35.546875 -40.515625 32.765625 -41.609375 C 24.242188 -44.984375 17.957031 -48.484375 13.90625 -52.109375 C 9.863281 -55.734375 7.84375 -60.539062 7.84375 -66.53125 C 7.84375 -71.164062 9.0625 -75.191406 11.5 -78.609375 C 13.945312 -82.023438 17.34375 -84.679688 21.6875 -86.578125 C 26.03125 -88.472656 31.070312 -89.421875 36.8125 -89.421875 C 43.8125 -89.421875 49.332031 -88.617188 53.375 -87.015625 C 57.425781 -85.421875 60.25 -84.113281 61.84375 -83.09375 L 62.359375 -70.328125 L 61.34375 -70.078125 C 60 -73.023438 58.226562 -75.828125 56.03125 -78.484375 C 53.84375 -81.140625 50.957031 -83.3125 47.375 -85 C 43.789062 -86.6875 39.171875 -87.53125 33.515625 -87.53125 C 30.054688 -87.53125 26.804688 -86.875 23.765625 -85.5625 C 20.734375 -84.257812 18.289062 -82.320312 16.4375 -79.75 C 14.582031 -77.175781 13.65625 -73.910156 13.65625 -69.953125 C 13.65625 -66.828125 14.394531 -64.125 15.875 -61.84375 C 17.351562 -59.570312 19.3125 -57.59375 21.75 -55.90625 C 24.195312 -54.21875 26.894531 -52.695312 29.84375 -51.34375 C 32.800781 -50 35.710938 -48.738281 38.578125 -47.5625 C 43.640625 -45.53125 48.128906 -43.421875 52.046875 -41.234375 C 55.972656 -39.046875 59.050781 -36.492188 61.28125 -33.578125 C 63.519531 -30.671875 64.640625 -26.984375 64.640625 -22.515625 C 64.640625 -17.878906 63.3125 -13.769531 60.65625 -10.1875 C 58 -6.601562 54.5 -3.796875 50.15625 -1.765625 C 45.8125 0.253906 41.066406 1.265625 35.921875 1.265625 Z M 35.921875 1.265625 "/></g></g></g></svg>